Coordinates
version=1
nRows=38
nColumns=12
inDegrees=yes

Units are S.I. units (second, meters, Newtons, ...)
Angles are in degrees

endheader
time	SC_y	SC_z	SC_x	AC_y	AC_z	AC_x	GH_y	GH_z	GH_yy	EL_x	PS_y
       0.0              -43.85          6.554          79.44          67.99         -3.259          10.83          35.37          51.06         -130.0          13.85          155.9
   0.03564              -43.85          6.556          79.43          67.99         -3.259          10.83          35.35          51.05         -129.9          13.86          155.9
   0.07127              -43.85          6.558          79.41          67.99          -3.26          10.83          35.34          51.04         -129.9          13.87          155.8
    0.1069              -43.86           6.56           79.4          67.98          -3.26          10.83          35.33          51.03         -129.9          13.89          155.8
    0.1425              -43.86          6.562          79.39          67.98         -3.261          10.84          35.32          51.02         -129.8           13.9          155.8
    0.1782              -43.86          6.565          79.37          67.98         -3.262          10.84           35.3           51.0         -129.8          13.92          155.8
    0.2138              -43.86          6.567          79.36          67.98         -3.262          10.84          35.29          50.99         -129.7          13.93          155.8
    0.2495              -43.87           6.57          79.34          67.97         -3.263          10.84          35.27          50.98         -129.7          13.95          155.8
    0.2851              -43.87          6.572          79.32          67.97         -3.264          10.84          35.26          50.96         -129.6          13.97          155.8
    0.3207              -43.87          6.575           79.3          67.97         -3.265          10.84          35.24          50.95         -129.5          13.99          155.7
    0.3564              -43.88          6.578          79.28          67.97         -3.266          10.84          35.22          50.93         -129.5          14.01          155.7
     0.392              -43.88          6.582          79.26          67.96         -3.267          10.84           35.2          50.91         -129.4          14.03          155.7
    0.4276              -43.88          6.586          79.23          67.96         -3.268          10.84          35.18          50.89         -129.3          14.05          155.7
    0.4633              -43.89           6.59          79.21          67.95         -3.269          10.85          35.15          50.87         -129.2          14.08          155.7
    0.4989              -43.89          6.594          79.18          67.95          -3.27          10.85          35.13          50.85         -129.1          14.11          155.6
    0.5346               -43.9          6.599          79.15          67.95         -3.271          10.85           35.1          50.83         -129.0          14.14          155.6
    0.5702               -43.9          6.604          79.12          67.94         -3.273          10.85          35.07           50.8         -128.9          14.17          155.6
    0.6058              -43.91          6.609          79.08          67.93         -3.275          10.85          35.03          50.77         -128.8          14.21          155.5
    0.6415              -43.92          6.615          79.04          67.93         -3.276          10.86          34.99          50.74         -128.7          14.25          155.5
    0.6771              -43.92          6.622           79.0          67.92         -3.278          10.86          34.95           50.7         -128.5          14.29          155.5
    0.7127              -43.93          6.629          78.95          67.91          -3.28          10.86          34.91          50.66         -128.4          14.34          155.4
    0.7484              -43.94          6.637           78.9          67.91         -3.283          10.87          34.86          50.62         -128.2          14.39          155.4
     0.784              -43.95          6.646          78.84           67.9         -3.285          10.87          34.81          50.58         -128.0          14.45          155.3
    0.8197              -43.96          6.656          78.77          67.89         -3.288          10.87          34.75          50.52         -127.8          14.51          155.3
    0.8553              -43.97          6.667           78.7          67.88         -3.291          10.88          34.68          50.47         -127.6          14.58          155.2
    0.8909              -43.98          6.679          78.62          67.86         -3.295          10.88          34.61           50.4         -127.3          14.66          155.1
    0.9266               -44.0          6.693          78.53          67.85         -3.299          10.89          34.52          50.33         -127.0          14.75          155.0
    0.9622              -44.02          6.708          78.43          67.83         -3.303          10.89          34.43          50.25         -126.7          14.85          155.0
    0.9978              -44.03          6.726          78.32          67.82         -3.308           10.9          34.32          50.16         -126.3          14.96          154.8
     1.033              -44.06          6.745          78.19          67.79         -3.314          10.91           34.2          50.06         -125.9          15.09          154.7
     1.069              -44.08          6.768          78.04          67.77          -3.32          10.92          34.07          49.94         -125.4          15.24          154.6
     1.105              -44.11          6.794          77.87          67.75         -3.328          10.93          33.91           49.8         -124.8           15.4          154.4
      1.14              -44.14          6.824          77.68          67.72         -3.336          10.94          33.73          49.65         -124.2           15.6          154.3
     1.176              -44.18          6.858          77.45          67.68         -3.346          10.95          33.52          49.47         -123.4          15.82          154.1
     1.212              -44.22          6.899          77.18          67.64         -3.358          10.97          33.27          49.25         -122.6          16.09          153.8
     1.247              -44.27          6.947          76.87          67.59         -3.371          10.99          32.98           49.0         -121.5           16.4          153.5
     1.283              -44.33          7.004           76.5          67.53         -3.388          11.01          32.63          48.71         -120.3          16.76          153.2
     1.319              -44.41          7.072          76.05          67.46         -3.407          11.04          32.22          48.35         -118.8          17.21          152.8
